<?xml version="1.0" standalone="no"?>
<!DOCTYPE svg PUBLIC "-//W3C//DTD SVG 20010904//EN"
 "http://www.w3.org/TR/2001/REC-SVG-20010904/DTD/svg10.dtd">
<svg version="1.0" xmlns="http://www.w3.org/2000/svg"
 width="200.000000pt" height="200.000000pt" viewBox="0 0 200.000000 200.000000"
 preserveAspectRatio="xMidYMid meet">

<g transform="translate(0.000000,200.000000) scale(0.100000,-0.100000)"
fill="#000000" stroke="none">
<path d="M865 1573 c-68 -9 -106 -25 -161 -68 -68 -53 -90 -55 -175 -20 -45
19 -64 23 -79 15 -42 -23 -33 -95 20 -145 17 -16 30 -39 30 -52 0 -14 15 -39
35 -59 39 -39 41 -50 20 -146 -17 -82 -11 -125 26 -200 l29 -58 -138 0 c-133
0 -182 -5 -182 -19 0 -3 80 -5 178 -3 97 2 174 1 170 -3 -3 -4 -51 -10 -105
-15 -54 -5 -106 -12 -116 -15 -26 -10 -21 -29 6 -20 12 4 76 8 142 10 109 3
114 3 55 -6 -201 -30 -255 -40 -263 -48 -17 -17 9 -19 59 -6 76 20 295 38 308
25 7 -7 1 -10 -19 -10 -40 0 -148 -20 -165 -30 -28 -18 -2 -19 66 -5 38 8 83
15 100 15 30 0 32 -3 38 -44 9 -59 43 -108 83 -119 43 -13 48 -32 17 -73 -37
-49 -20 -57 20 -10 37 45 62 42 52 -5 -8 -39 10 -46 23 -8 10 29 12 30 63 27
45 -3 53 -6 58 -26 7 -33 26 -27 22 8 -5 46 18 48 54 4 40 -47 57 -39 20 10
-31 41 -26 60 17 73 40 11 74 60 83 119 7 52 10 52 130 29 76 -14 103 -13 74
5 -17 10 -125 30 -165 30 -19 0 -26 3 -19 10 12 12 235 -6 307 -25 29 -8 56
-10 60 -6 14 14 -52 31 -158 42 -163 17 -187 29 -50 24 66 -2 130 -7 143 -11
26 -8 30 10 5 21 -10 4 -64 9 -120 12 -57 3 -103 10 -103 16 0 6 66 8 175 5
96 -2 175 0 175 3 0 14 -49 19 -183 19 -76 0 -137 3 -135 8 63 124 70 162 49
271 -16 78 -14 89 18 119 16 15 34 43 40 64 7 20 18 39 26 42 19 7 55 79 55
108 -1 55 -35 65 -113 32 -74 -31 -114 -28 -163 15 -49 44 -83 59 -155 70 -62
10 -222 12 -284 4z m348 -41 c24 -11 60 -34 80 -51 25 -22 51 -35 84 -40 l48
-7 -39 -13 c-36 -13 -81 -11 -150 5 -47 11 -22 -12 33 -31 55 -18 121 -81 121
-115 0 -11 5 -20 10 -20 6 0 10 10 10 21 0 25 -37 89 -51 89 -21 0 -7 18 19
23 15 3 56 24 91 47 64 42 91 45 91 13 0 -25 -27 -74 -50 -90 -10 -7 -24 -30
-31 -51 -7 -20 -26 -49 -42 -65 -28 -26 -29 -30 -23 -85 18 -169 18 -182 6
-214 -7 -18 -24 -50 -38 -71 -25 -37 -28 -38 -76 -35 -50 3 -50 3 -60 -32 -5
-19 -15 -39 -20 -43 -8 -6 -7 -10 2 -14 9 -4 10 -8 2 -18 -8 -9 -8 -15 0 -20
13 -8 4 -67 -16 -106 -31 -63 -168 -65 -196 -4 -10 22 -8 27 15 46 15 11 27
27 27 34 0 7 11 22 25 33 24 19 35 62 15 62 -5 0 -10 -6 -10 -14 0 -8 -11 -23
-25 -34 -14 -11 -25 -27 -25 -36 0 -24 -45 -42 -65 -26 -8 7 -15 20 -15 30 0
10 -12 25 -26 35 -15 10 -23 22 -20 31 3 8 -1 14 -9 14 -24 0 -17 -40 10 -62
14 -11 25 -25 25 -33 0 -7 12 -22 26 -32 35 -25 25 -59 -22 -79 -62 -26 -135
-10 -158 35 -20 39 -29 98 -16 106 8 5 8 11 0 20 -8 10 -7 15 2 19 10 5 10 7
1 12 -7 3 -13 15 -13 25 0 44 -16 56 -68 51 -47 -4 -49 -3 -73 34 -54 83 -56
102 -33 291 6 49 5 54 -23 80 -16 16 -35 44 -42 63 -6 19 -25 48 -41 65 -16
17 -32 45 -36 63 -10 49 15 51 88 3 34 -22 75 -43 91 -47 l29 -6 -21 -22 c-24
-25 -53 -91 -44 -100 13 -13 23 -5 23 17 0 35 61 92 120 112 27 9 50 21 50 27
0 6 -9 8 -22 3 -51 -15 -119 -17 -150 -4 l-33 14 48 7 c32 4 59 16 82 37 78
68 140 82 338 76 97 -3 138 -9 170 -23z m97 -717 c23 14 8 -14 -16 -30 -31
-20 -37 -16 -28 19 5 21 9 24 20 15 7 -6 18 -8 24 -4z m-576 -18 c7 -29 2 -31
-28 -12 -32 22 -33 33 -2 33 16 0 26 -7 30 -21z m286 -232 c9 -8 34 -18 56
-23 39 -8 39 -8 15 -21 -20 -11 -25 -11 -33 3 -13 23 -31 20 -23 -4 6 -18 2
-20 -35 -20 -37 0 -41 2 -35 20 8 24 -10 27 -23 4 -8 -14 -12 -14 -33 -3 -24
13 -23 13 18 21 23 5 47 15 53 23 15 19 19 19 40 0z"/>
<path d="M795 1283 c4 -10 10 -26 12 -35 3 -10 9 -18 14 -18 12 0 11 27 -1 51
-13 24 -35 26 -25 2z"/>
<path d="M868 1270 c-5 -30 3 -46 16 -33 9 10 7 63 -3 63 -5 0 -11 -14 -13
-30z"/>
<path d="M1110 1271 c0 -17 5 -33 10 -36 6 -4 10 8 10 29 0 20 -4 36 -10 36
-5 0 -10 -13 -10 -29z"/>
<path d="M1180 1281 c-12 -24 -13 -51 -1 -51 5 0 11 8 14 18 2 9 8 25 12 35
10 24 -12 22 -25 -2z"/>
<path d="M710 1270 c0 -15 58 -76 65 -68 4 4 -5 23 -20 42 -27 35 -45 46 -45
26z"/>
<path d="M1245 1244 c-15 -19 -24 -38 -20 -42 7 -7 65 56 65 70 0 18 -19 6
-45 -28z"/>
<path d="M774 1159 c-6 -11 56 -39 86 -39 12 0 32 -12 47 -26 28 -28 38 -26
29 4 -4 11 -19 24 -34 29 -89 31 -123 40 -128 32z"/>
<path d="M1190 1156 c-14 -7 -42 -16 -63 -20 -24 -4 -43 -16 -53 -32 -23 -35
-9 -42 20 -11 15 16 36 27 51 27 30 0 85 26 85 40 0 13 -10 12 -40 -4z"/>
<path d="M697 1144 c-4 -4 1 -13 10 -20 10 -6 18 -26 19 -43 4 -72 75 -113
136 -78 28 16 28 16 28 -13 0 -35 17 -40 22 -7 6 36 -9 90 -29 105 -10 7 -29
15 -43 18 -25 4 -92 26 -121 38 -8 4 -18 4 -22 0z m77 -69 c8 -32 50 -44 75
-21 22 20 31 20 31 2 0 -20 -39 -46 -67 -46 -30 0 -63 34 -63 65 0 32 16 32
24 0z m57 0 c-1 -15 -24 -12 -29 3 -3 9 2 13 12 10 10 -1 17 -7 17 -13z"/>
<path d="M1260 1135 c-14 -7 -43 -17 -65 -21 -88 -15 -115 -48 -107 -136 3
-31 22 -19 22 13 0 29 1 30 22 15 26 -19 71 -21 100 -5 24 13 51 74 43 99 -3
11 0 20 10 24 15 5 21 26 8 26 -5 -1 -19 -7 -33 -15z m-10 -60 c0 -29 -36 -65
-65 -65 -26 0 -65 27 -65 46 0 18 14 18 30 -1 19 -23 53 -14 68 18 16 34 32
35 32 2z m-52 3 c-3 -7 -11 -13 -18 -13 -7 0 -15 6 -17 13 -3 7 4 12 17 12 13
0 20 -5 18 -12z"/>
<path d="M680 984 c0 -3 12 -15 26 -26 14 -12 30 -32 35 -45 8 -22 29 -24 29
-3 0 16 -61 80 -76 80 -8 0 -14 -3 -14 -6z"/>
<path d="M1268 963 c-30 -33 -41 -60 -28 -68 6 -4 14 5 19 18 5 13 21 33 35
45 29 22 33 32 13 32 -7 0 -25 -12 -39 -27z"/>
<path d="M940 936 c0 -25 38 -87 57 -93 15 -5 63 66 63 94 0 32 -16 29 -23 -4
-3 -16 -13 -37 -21 -48 l-16 -20 -16 20 c-8 11 -18 32 -21 48 -7 33 -23 36
-23 3z"/>
<path d="M810 875 c-22 -46 -21 -74 6 -96 13 -10 14 -7 8 29 -5 30 -2 48 10
66 18 28 21 46 7 46 -5 0 -19 -20 -31 -45z"/>
<path d="M1150 910 c0 -6 7 -22 16 -36 12 -18 15 -36 10 -66 -6 -36 -5 -39 8
-29 27 22 28 50 6 96 -20 42 -40 59 -40 35z"/>
<path d="M850 759 c0 -29 18 -59 35 -59 19 0 19 14 0 30 -8 7 -15 21 -15 31 0
11 -4 19 -10 19 -5 0 -10 -9 -10 -21z"/>
<path d="M1130 763 c0 -9 -7 -25 -17 -35 -22 -25 -8 -36 17 -13 21 19 28 65
10 65 -5 0 -10 -8 -10 -17z"/>
<path d="M942 753 c5 -25 53 -37 89 -23 16 7 29 19 29 26 0 12 -4 12 -28 0
-23 -12 -32 -12 -60 0 -30 12 -33 12 -30 -3z"/>
<path d="M806 703 c-11 -11 -6 -23 9 -23 8 0 15 4 15 9 0 13 -16 22 -24 14z"/>
<path d="M1176 703 c-11 -11 -6 -23 9 -23 8 0 15 4 15 9 0 13 -16 22 -24 14z"/>
<path d="M862 658 c6 -18 28 -21 28 -4 0 9 -7 16 -16 16 -9 0 -14 -5 -12 -12z"/>
<path d="M1110 654 c0 -17 22 -14 28 4 2 7 -3 12 -12 12 -9 0 -16 -7 -16 -16z"/>
<path d="M810 635 c0 -9 5 -15 11 -13 6 2 11 8 11 13 0 5 -5 11 -11 13 -6 2
-11 -4 -11 -13z"/>
<path d="M1167 644 c-8 -8 1 -24 14 -24 5 0 9 7 9 15 0 15 -12 20 -23 9z"/>
<path d="M912 629 c2 -6 8 -10 13 -10 5 0 11 4 13 10 2 6 -4 11 -13 11 -9 0
-15 -5 -13 -11z"/>
<path d="M1062 629 c2 -6 8 -10 13 -10 5 0 11 4 13 10 2 6 -4 11 -13 11 -9 0
-15 -5 -13 -11z"/>
<path d="M855 610 c-4 -6 -3 -16 3 -22 6 -6 12 -6 17 2 4 6 3 16 -3 22 -6 6
-12 6 -17 -2z"/>
<path d="M1125 610 c-4 -6 -3 -16 3 -22 6 -6 12 -6 17 2 4 6 3 16 -3 22 -6 6
-12 6 -17 -2z"/>
</g>
</svg>
